<svg width="256" height="256" viewBox="0 0 256 256" xmlns="http://www.w3.org/2000/svg">
  <defs>
    <linearGradient id="bg" x1="0%" y1="0%" x2="100%" y2="100%">
      <stop offset="0%" style="stop-color:#4A90E2;stop-opacity:1" />
      <stop offset="100%" style="stop-color:#357ABD;stop-opacity:1" />
    </linearGradient>
    <linearGradient id="orbit1" x1="0%" y1="0%" x2="100%" y2="100%">
      <stop offset="0%" style="stop-color:#FFFFFF;stop-opacity:0.8" />
      <stop offset="100%" style="stop-color:#E3F2FD;stop-opacity:0.6" />
    </linearGradient>
    <linearGradient id="orbit2" x1="0%" y1="0%" x2="100%" y2="100%">
      <stop offset="0%" style="stop-color:#FFFFFF;stop-opacity:0.7" />
      <stop offset="100%" style="stop-color:#E3F2FD;stop-opacity:0.5" />
    </linearGradient>
    <linearGradient id="orbit3" x1="0%" y1="0%" x2="100%" y2="100%">
      <stop offset="0%" style="stop-color:#FFFFFF;stop-opacity:0.6" />
      <stop offset="100%" style="stop-color:#E3F2FD;stop-opacity:0.4" />
    </linearGradient>
  </defs>
  
  <!-- 背景圆形 -->
  <circle cx="128" cy="128" r="120" fill="url(#bg)" stroke="#2E5BBA" stroke-width="4"/>
  
  <!-- 原子核 -->
  <circle cx="128" cy="128" r="12" fill="#FFFFFF" stroke="#2E5BBA" stroke-width="2"/>
  <circle cx="128" cy="128" r="6" fill="#4A90E2"/>
  
  <!-- 电子轨道1 -->
  <ellipse cx="128" cy="128" rx="60" ry="25" fill="none" stroke="url(#orbit1)" stroke-width="3" opacity="0.8" transform="rotate(0 128 128)"/>
  <circle cx="188" cy="128" r="4" fill="#FFFFFF" opacity="0.9"/>
  
  <!-- 电子轨道2 -->
  <ellipse cx="128" cy="128" rx="45" ry="35" fill="none" stroke="url(#orbit2)" stroke-width="3" opacity="0.7" transform="rotate(120 128 128)"/>
  <circle cx="173" cy="93" r="4" fill="#FFFFFF" opacity="0.8"/>
  
  <!-- 电子轨道3 -->
  <ellipse cx="128" cy="128" rx="35" ry="45" fill="none" stroke="url(#orbit3)" stroke-width="3" opacity="0.6" transform="rotate(240 128 128)"/>
  <circle cx="163" cy="173" r="4" fill="#FFFFFF" opacity="0.7"/>
  
  <!-- 电子（动画效果） -->
  <circle cx="188" cy="128" r="3" fill="#FFFFFF" opacity="0.9">
    <animate attributeName="opacity" values="0.9;0.3;0.9" dur="2s" repeatCount="indefinite"/>
  </circle>
  <circle cx="173" cy="93" r="3" fill="#FFFFFF" opacity="0.8">
    <animate attributeName="opacity" values="0.8;0.2;0.8" dur="2.5s" repeatCount="indefinite"/>
  </circle>
  <circle cx="163" cy="173" r="3" fill="#FFFFFF" opacity="0.7">
    <animate attributeName="opacity" values="0.7;0.1;0.7" dur="3s" repeatCount="indefinite"/>
  </circle>
</svg> 